# xmcd CD database file
#
# Track frame offsets:
#	150
#	22402
#	39295
#	60420
#	75402
#	93370
#	109890
#	127515
#	147790
#	163347
#
# Disc length: 2450 seconds
#
# Revision: 0
# Processed by: cddbd v1.5PL3 Copyright (c) Steve Scherf et al.
# Submitted via: CDex 1.50beta9
#
DISCID=7709900a
DTITLE=安原兵衛 - 青春のアウトライン
DYEAR=2003
DGENRE=Pop
TTITLE0=Digital 9
TTITLE1=TekeTeke
TTITLE2=YOU&I
TTITLE3=祈り
TTITLE4=More
TTITLE5=AMB summer
TTITLE6=Idol Of Surf
TTITLE7=シー・イズ・ア・ポストマン(With JOSEPH NOTHING)
TTITLE8=Star Train
TTITLE9=声
EXTD=YEAR: 2003
EXTT0=
EXTT1=
EXTT2=
EXTT3=
EXTT4=
EXTT5=
EXTT6=
EXTT7=
EXTT8=
EXTT9=
PLAYORDER=
